<?xml version="1.0" encoding="UTF-8" standalone="no"?>
<!-- Created with Inkscape (http://www.inkscape.org/) -->

<svg
   xmlns:dc="http://purl.org/dc/elements/1.1/"
   xmlns:cc="http://creativecommons.org/ns#"
   xmlns:rdf="http://www.w3.org/1999/02/22-rdf-syntax-ns#"
   xmlns:svg="http://www.w3.org/2000/svg"
   xmlns="http://www.w3.org/2000/svg"
   xmlns:sodipodi="http://sodipodi.sourceforge.net/DTD/sodipodi-0.dtd"
   xmlns:inkscape="http://www.inkscape.org/namespaces/inkscape"
   id="svg2"
   version="1.1"
   inkscape:version="0.48.4 r9939"
   width="156.72888"
   height="187.2525"
   xml:space="preserve"
   sodipodi:docname="Powered by Fate Final Light BG_A.svg"><metadata
     id="metadata8"><rdf:RDF><cc:Work
         rdf:about=""><dc:format>image/svg+xml</dc:format><dc:type
           rdf:resource="http://purl.org/dc/dcmitype/StillImage" /><dc:title></dc:title></cc:Work></rdf:RDF></metadata><defs
     id="defs6" /><sodipodi:namedview
     pagecolor="#ffffff"
     bordercolor="#666666"
     borderopacity="1"
     objecttolerance="10"
     gridtolerance="10"
     guidetolerance="10"
     inkscape:pageopacity="0"
     inkscape:pageshadow="2"
     inkscape:window-width="1280"
     inkscape:window-height="748"
     id="namedview4"
     showgrid="false"
     inkscape:zoom="0.73712624"
     inkscape:cx="125.18138"
     inkscape:cy="93.625"
     inkscape:window-x="0"
     inkscape:window-y="0"
     inkscape:window-maximized="1"
     inkscape:current-layer="g12"
     fit-margin-top="0"
     fit-margin-left="0"
     fit-margin-right="0"
     fit-margin-bottom="0" /><g
     id="g10"
     inkscape:groupmode="layer"
     inkscape:label="ink_ext_XXXXXX"
     transform="matrix(1.25,0,0,-1.25,-115.61862,187.2525)"><g
       id="g12"
       transform="scale(0.1,0.1)"><path
         d="m 1635.46,406.699 -76.46,203.094 -76.46,-203.094 152.92,0 z M 2143.3,18.0703 c -124.91,27.5899 -253.23,46.3711 -381.41,55.8086 l -6.26,0.4609 -30.15,76.5702 -334.31,0 -29.49,-76.9998 -6.31,-0.4688 C 1229.52,63.8594 1103.36,45.2383 980.398,18.0703 L 961.598,13.9219 1561.88,1452 1735.85,1032.63 2162.12,13.9102 2143.3,18.0703"
         style="fill:#1c1a18;fill-opacity:1;fill-rule:nonzero;stroke:none"
         id="path34"
         inkscape:connector-curvature="0" /><path
         d="m 1497,416.699 62,164.711 62.01,-164.711 -124.01,0 0,0 z m 64.9,1061.321 -18.51,-44.35 L 959.785,35.5391 944.949,0 982.559,8.30859 C 1105.06,35.3789 1230.75,53.9297 1356.13,63.4609 l 12.62,0.961 4.54,11.8398 24.76,64.6483 320.62,0 25.35,-64.3787 4.6,-11.6993 12.54,-0.9218 C 1888.86,54.5 2016.7,35.7891 2141.14,8.30859 L 2178.78,0 2163.9,35.5586 1745.07,1036.51 l -164.75,397.12 -18.42,44.39 0,0 z m -93.8,-1081.321 181.81,0 L 1559,638.176 1468.1,396.699 M 1561.85,1425.96 1726.62,1028.79 2145.45,27.8398 C 2020.85,55.3594 1893.04,74.25 1762.63,83.8516 l -30.34,77.0584 -348,0 -29.68,-77.4998 c -128.18,-9.75 -253.83,-28.5 -376.368,-55.5704 L 1561.85,1425.96"
         style="fill:#1c1a18;fill-opacity:1;fill-rule:nonzero;stroke:none"
         id="path36"
         inkscape:connector-curvature="0" /><path
         d="m 1615.46,426.699 -76.46,203.094 -76.46,-203.094 152.92,0 z M 2123.3,38.0703 c -124.91,27.5899 -253.23,46.3711 -381.41,55.8086 l -6.26,0.4609 -30.15,76.5702 -334.31,0 -29.49,-76.9998 -6.31,-0.4688 C 1209.52,83.8594 1083.36,65.2383 960.398,38.0703 L 941.598,33.9219 1541.88,1472 1715.85,1052.63 2142.12,33.9102 2123.3,38.0703"
         style="fill:#376cbe;fill-opacity:1;fill-rule:nonzero;stroke:none"
         id="path38"
         inkscape:connector-curvature="0" /><path
         d="m 1477,436.699 62,164.711 62.01,-164.711 -124.01,0 0,0 z m 64.9,1061.321 -18.51,-44.35 L 939.785,55.5391 924.949,20 l 37.61,8.3086 c 122.501,27.0703 248.191,45.6211 373.571,55.1523 l 12.62,0.961 4.54,11.8398 24.76,64.6483 320.62,0 25.35,-64.3787 4.6,-11.6993 12.54,-0.9218 C 1868.86,74.5 1996.7,55.7891 2121.14,28.3086 L 2158.78,20 2143.9,55.5586 1725.07,1056.51 l -164.75,397.12 -18.42,44.39 0,0 z m -93.8,-1081.321 181.81,0 L 1539,658.176 1448.1,416.699 M 1541.85,1445.96 1706.62,1048.79 2125.45,47.8398 C 2000.85,75.3594 1873.04,94.25 1742.63,103.852 l -30.34,77.058 -348,0 -29.68,-77.5 C 1206.43,93.6602 1080.78,74.9102 958.242,47.8398 L 1541.85,1445.96"
         style="fill:#ffffff;fill-opacity:1;fill-rule:nonzero;stroke:none"
         id="path40"
         inkscape:connector-curvature="0" /></g></g></svg>