<?xml version="1.0" encoding="UTF-8" standalone="no"?>
<!-- Created with Inkscape (http://www.inkscape.org/) -->

<svg
   xmlns:dc="http://purl.org/dc/elements/1.1/"
   xmlns:cc="http://creativecommons.org/ns#"
   xmlns:rdf="http://www.w3.org/1999/02/22-rdf-syntax-ns#"
   xmlns:svg="http://www.w3.org/2000/svg"
   xmlns="http://www.w3.org/2000/svg"
   xmlns:sodipodi="http://sodipodi.sourceforge.net/DTD/sodipodi-0.dtd"
   xmlns:inkscape="http://www.inkscape.org/namespaces/inkscape"
   width="56.606384mm"
   height="28.031649mm"
   viewBox="0 0 56.606384 28.031649"
   version="1.1"
   id="svg6180"
   inkscape:version="0.92.3 (2405546, 2018-03-11)"
   sodipodi:docname="logo.svg">
  <defs
     id="defs6174" />
  <sodipodi:namedview
     id="base"
     pagecolor="#ffffff"
     bordercolor="#666666"
     borderopacity="1.0"
     inkscape:pageopacity="0.0"
     inkscape:pageshadow="2"
     inkscape:zoom="3.959798"
     inkscape:cx="222.66803"
     inkscape:cy="56.398435"
     inkscape:document-units="mm"
     inkscape:current-layer="layer1"
     showgrid="false"
     inkscape:window-width="1680"
     inkscape:window-height="950"
     inkscape:window-x="0"
     inkscape:window-y="0"
     inkscape:window-maximized="1" />
  <metadata
     id="metadata6177">
    <rdf:RDF>
      <cc:Work
         rdf:about="">
        <dc:format>image/svg+xml</dc:format>
        <dc:type
           rdf:resource="http://purl.org/dc/dcmitype/StillImage" />
        <dc:title></dc:title>
      </cc:Work>
    </rdf:RDF>
  </metadata>
  <g
     inkscape:label="Layer 1"
     inkscape:groupmode="layer"
     id="layer1"
     transform="translate(-20.162971,-20.038908)">
    <path
       style="fill:#000000;stroke-width:0.11467607"
       d="m 26.233595,48.017714 c -0.861623,-0.209623 -1.373342,-0.983943 -1.306026,-1.976245 0.04733,-0.69767 0.367479,-1.269734 0.867495,-1.550095 0.396695,-0.222427 1.29322,-0.248182 1.651625,-0.04744 0.297891,0.166844 0.755705,0.598016 0.755705,0.711727 0,0.04213 -0.201307,0.199284 -0.447348,0.349222 -0.411969,0.251054 -0.462735,0.257514 -0.641914,0.08169 -0.281324,-0.276053 -0.738815,-0.23988 -0.941881,0.07447 -0.503972,0.780161 0.31077,1.715314 0.948902,1.08914 0.18803,-0.184506 0.228111,-0.182499 0.595968,0.02985 0.513074,0.296178 0.54837,0.373278 0.304595,0.665348 -0.414112,0.496156 -1.142033,0.729274 -1.787121,0.57233 z m 4.955808,0 c -0.840267,-0.204427 -1.390137,-0.934573 -1.390137,-1.845892 0,-1.091339 0.73274,-1.850867 1.785591,-1.850867 0.909425,0 1.593889,0.509325 1.800044,1.339453 0.351051,1.413578 -0.835957,2.688068 -2.195498,2.357306 z m 0.682023,-1.087598 c 0.132302,-0.07551 0.27696,-0.196412 0.321461,-0.268674 0.143232,-0.232588 0.08953,-0.884815 -0.08878,-1.078145 -0.181761,-0.19708 -0.670472,-0.247789 -0.895213,-0.09289 -0.409838,0.282477 -0.330274,1.262916 0.118432,1.459392 0.308399,0.13504 0.270595,0.136408 0.544097,-0.01968 z m 3.379229,-0.758294 v -1.850867 l 0.96363,7.16e-4 c 1.268168,8.36e-4 1.743401,0.150289 2.015172,0.633569 0.341837,0.607873 0.246917,1.215773 -0.257772,1.650874 -0.22579,0.194658 -0.225096,0.197806 0.1779,0.806023 l 0.404576,0.610602 h -0.650479 -0.650478 l -0.312968,-0.537135 c -0.405458,-0.695923 -0.58829,-0.69599 -0.58829,-2.64e-4 v 0.537349 h -0.550645 -0.550646 z m 1.929585,-0.2259 c 0.1781,-0.141206 0.187517,-0.19507 0.06263,-0.358233 -0.08196,-0.10708 -0.311547,-0.192037 -0.518955,-0.192037 -0.339879,0 -0.371968,0.0309 -0.371968,0.358232 0,0.313012 0.03905,0.358232 0.309338,0.358232 0.170136,0 0.403666,-0.07479 0.518955,-0.166194 z m 3.026224,0.2259 v -1.850867 h 1.431678 1.431678 v 0.477643 0.477643 h -0.881033 c -0.807613,0 -0.881032,0.0199 -0.881032,0.238822 0,0.217592 0.07342,0.238821 0.825968,0.238821 h 0.825968 v 0.417938 0.417938 h -0.825968 c -0.752549,0 -0.825968,0.02123 -0.825968,0.238821 0,0.218919 0.07342,0.238822 0.881032,0.238822 h 0.881033 v 0.477643 0.477643 h -1.431678 -1.431678 z m 7.626442,1.615261 c -0.25743,-0.126698 -0.46805,-0.27667 -0.46805,-0.333269 0,-0.0566 0.13628,-0.243563 0.30285,-0.415472 0.27791,-0.28682 0.32553,-0.298844 0.57818,-0.145984 0.31524,0.190732 1.10129,0.232822 1.10129,0.05897 0,-0.06384 -0.28436,-0.205708 -0.63191,-0.31526 -0.7942,-0.250336 -0.98362,-0.379201 -1.13328,-0.770957 -0.1649,-0.431646 -0.0341,-0.891864 0.35398,-1.245981 0.27388,-0.249873 0.4408,-0.298174 1.03047,-0.298174 0.63275,0 1.48311,0.269722 1.48148,0.469906 -3.3e-4,0.03709 -0.11815,0.226822 -0.2619,0.421619 -0.23891,0.323771 -0.28659,0.341711 -0.55528,0.208969 -0.35055,-0.173185 -0.94433,-0.1923 -0.94433,-0.0304 0,0.06314 0.21062,0.173127 0.46805,0.244406 0.74941,0.207507 1.07147,0.373052 1.24333,0.639097 0.31783,0.49201 0.11343,1.28684 -0.40581,1.577976 -0.44253,0.248128 -1.59279,0.213261 -2.15907,-0.06545 z m 5.36879,-0.379567 c 0,-0.5141 -0.0843,-0.774054 -0.51281,-1.582193 -0.28205,-0.531861 -0.58509,-1.087923 -0.67344,-1.235694 -0.16021,-0.267961 -0.1589,-0.268674 0.49003,-0.268674 h 0.65067 l 0.27984,0.619723 0.27985,0.619722 0.31108,-0.619722 0.31108,-0.619723 h 0.5882 c 0.32352,0 0.58821,0.03101 0.58821,0.0689 0,0.0379 -0.27257,0.564149 -0.60571,1.169454 -0.54485,0.989975 -0.60571,1.169021 -0.60571,1.781968 v 0.681413 h -0.55065 -0.55064 z m 3.99218,0.379567 c -0.25743,-0.126698 -0.46805,-0.27667 -0.46805,-0.333269 0,-0.0566 0.13628,-0.243563 0.30285,-0.415472 0.27792,-0.28682 0.32554,-0.298844 0.57818,-0.145984 0.31524,0.190732 1.10129,0.232822 1.10129,0.05897 0,-0.06384 -0.28436,-0.205708 -0.63191,-0.31526 -0.7942,-0.250336 -0.98362,-0.379201 -1.13328,-0.770957 -0.16489,-0.431646 -0.0341,-0.891864 0.35399,-1.245981 0.27387,-0.249873 0.4408,-0.298174 1.03047,-0.298174 0.63274,0 1.4831,0.269722 1.48148,0.469906 -3.3e-4,0.03709 -0.11816,0.226822 -0.2619,0.421619 -0.23892,0.323771 -0.28659,0.341711 -0.55528,0.208969 -0.35056,-0.173185 -0.94434,-0.1923 -0.94434,-0.0304 0,0.06314 0.21062,0.173127 0.46805,0.244406 0.74941,0.207507 1.07148,0.373052 1.24334,0.639097 0.31783,0.49201 0.11342,1.28684 -0.40581,1.577976 -0.44254,0.248128 -1.5928,0.213261 -2.15908,-0.06545 z m 5.14853,-1.077913 v -1.313518 h -0.49558 -0.49558 v -0.537349 -0.537348 h 1.59687 1.59687 v 0.537348 0.537349 h -0.49558 -0.49558 v 1.313518 1.313519 h -0.60571 -0.60571 z m 3.85452,-0.537348 v -1.850867 h 1.43168 1.43168 v 0.47262 0.47262 l -0.85231,0.03488 c -0.70895,0.02901 -0.8585,0.07002 -0.88911,0.243844 -0.0324,0.184135 0.0623,0.208969 0.79725,0.208969 h 0.83404 v 0.417938 0.417938 h -0.83404 c -0.73494,0 -0.82967,0.02483 -0.79722,0.208968 0.0309,0.175377 0.18268,0.214545 0.94417,0.243651 l 0.90735,0.03468 v 0.472814 0.472814 h -1.48675 -1.48674 z m 4.73555,0 v -1.850867 h 0.58258 0.58257 l 0.32159,0.597054 c 0.17688,0.328379 0.35649,0.597054 0.39914,0.597054 0.0427,0 0.23002,-0.268675 0.41637,-0.597054 l 0.33881,-0.597054 h 0.60673 0.60673 v 1.850867 1.850867 h -0.60089 -0.60088 l -0.0324,-0.865728 -0.0324,-0.865728 -0.31331,0.567201 c -0.17233,0.31196 -0.34578,0.567105 -0.38546,0.566987 -0.0397,-1.17e-4 -0.2208,-0.255357 -0.40252,-0.567201 l -0.33038,-0.566987 -0.0324,0.865728 -0.0324,0.865728 h -0.54582 -0.54582 z M 25.008651,40.022167 V 37.39513 h -2.42284 -2.42284 v -2.089689 -2.089689 h 2.42284 2.42284 V 29.872251 26.52875 h 6.670231 c 6.302699,0 6.666829,0.01151 6.608496,0.208969 -0.03395,0.114932 -0.425367,1.149328 -0.869807,2.298657 l -0.808071,2.089688 -3.32252,0.0316 -3.322521,0.0316 v 1.01129 1.01129 l 2.906643,0.0318 2.906643,0.0318 -0.786659,2.058736 -0.786657,2.058735 -2.119985,0.0011 -2.119985,0.0011 v 2.627037 2.627037 h -2.477904 -2.477904 z m 9.250842,2.547189 c 0,-0.01892 1.878339,-4.911994 4.174086,-10.873507 2.295748,-5.961511 4.243006,-11.023123 4.327241,-11.248026 l 0.153153,-0.408915 0.536939,1.423906 c 0.295315,0.783149 2.218984,5.77643 4.274824,11.096179 2.05584,5.31975 3.76075,9.756773 3.78869,9.860051 0.0446,0.164683 -0.11608,0.154573 -1.30601,-0.08221 -0.74625,-0.148492 -1.90196,-0.330158 -2.56824,-0.4037 -1.75814,-0.194063 -1.69076,-0.165013 -1.94973,-0.840667 l -0.22715,-0.592659 h -2.619567 -2.619564 l -0.18294,0.597199 c -0.208908,0.681976 -0.121361,0.642876 -1.872149,0.836127 -0.666281,0.07354 -1.818507,0.254517 -2.560501,0.402164 -0.741995,0.147647 -1.349082,0.252972 -1.349082,0.234056 z m 9.912658,-5.980249 c 0.0029,-0.250676 -1.261266,-3.724941 -1.326449,-3.645402 -0.07108,0.08673 -1.317689,3.571862 -1.317689,3.683846 0,0.02811 0.594697,0.05111 1.321549,0.05111 0.726852,0 1.322017,-0.0403 1.322589,-0.08956 z m 8.258645,0.268674 v -5.791423 l -1.67947,-8.12e-4 -1.67947,-8.12e-4 -0.82597,-2.159057 c -0.45428,-1.187482 -0.84249,-2.208079 -0.86268,-2.267993 -0.022,-0.06527 5.4411,-0.108934 13.62848,-0.108934 h 13.66518 v 2.268805 2.268803 h -3.90958 -3.90958 v 0.77617 0.77617 h 3.63426 3.63425 v 1.910573 1.910572 h -3.63425 -3.63426 v 0.895581 0.895581 h 3.96464 3.96465 v 2.209099 2.2091 h -6.38749 -6.38748 v -5.791423 -5.791423 h -2.31271 -2.31272 v 5.791423 5.791423 h -2.4779 -2.4779 z m 23.5786,-9.821535 c -0.0126,-0.446754 0.082,-0.487248 0.34892,-0.149264 0.10372,0.131352 0.14244,0.238822 0.086,0.238822 -0.0564,0 -0.14053,-0.06663 -0.18695,-0.14806 -0.0574,-0.100776 -0.10876,-0.05311 -0.16071,0.149263 -0.0702,0.273343 -0.0772,0.266022 -0.0873,-0.09076 z m 0.59473,-0.268675 c 0.0374,-0.06568 0.0899,-0.11941 0.11663,-0.11941 0.0267,0 0.0486,0.05373 0.0486,0.11941 0,0.06568 -0.0525,0.119411 -0.11663,0.119411 -0.0641,0 -0.086,-0.05373 -0.0486,-0.119411 z m -1.21142,-0.11941 c -0.0374,-0.06568 0.0369,-0.119411 0.16519,-0.119411 0.12829,0 0.20263,0.05373 0.1652,0.119411 -0.0374,0.06568 -0.11178,0.11941 -0.1652,0.11941 -0.0534,0 -0.12776,-0.05373 -0.16519,-0.11941 z"
       id="path6207"
       inkscape:connector-curvature="0" />
  </g>
</svg>
